# xmcd
#
# Track frame offsets:
#	150
#	12325
#	23757
#	37507
#	52245
#	65585
#	79522
#	99110
#	111732
#	126310
#	142337
#	154225
#	165367
#	181255
#
# Disc length: 2618
#
# Revision: 5
# Processed by: cddbd v1.5.1PL0 Copyright (c) Steve Scherf et al.
# Submitted via: audiograbber 1.83.01
# Normalized: r4:DSETVAR1
#
DISCID=b60a380e
DTITLE=Various Artist - Mr Music Country 03-92
DYEAR=1992
DGENRE=Country
TTITLE0=Donna Ulisse - Out Of Sight, Out Of Mind
TTITLE1=Tracy Lawrence - I Hope Heaven Has A Honky Tonk
TTITLE2=Dean Dillon - A Country Boy (Who Rolled The Rock Away)
TTITLE3=Jill Hollier - Mama's Daily Bread
TTITLE4=Michael Martin Murphey - The Yellow Rose Of Texas
TTITLE5=Kenny Rogers - If You Want To Find Love
TTITLE6=Karen Tobin - Stars Above
TTITLE7=Martin Delray with Johnny Cash - Get Rhythm
TTITLE8=Highway 101 - Someone Else's Trouble Now
TTITLE9=Billy Hill - Blue Angel
TTITLE10=Travis Tritt with Mary Stuart - The Whiskey Ain't Workin'
TTITLE11=Jennifer McCarter and The McCarters - Moving On
TTITLE12=Randy Travis - Point Of Light
TTITLE13=The Girls Next Door - Last Goodbye
EXTD=www.timmie.dk
EXTT0=
EXTT1=
EXTT2=
EXTT3=
EXTT4=
EXTT5=
EXTT6=
EXTT7=
EXTT8=
EXTT9=
EXTT10=
EXTT11=
EXTT12=
EXTT13=
PLAYORDER=
